PathFileType	4	(X/Y/Z)	/Users/itak/Documents/Research/Walk-IL/dataset/trc/00084_00006.trc
DataRate	CameraRate	NumFrames	NumMarkers	Units	OrigDataRate	OrigDataStartFrame	OrigNumFrames
100.000000	100.000000	4	54	mm	100.000000	302	484
Frame#	Time	RPSI			LPSI			L3			STRN			T10			C7			CLAV			RBAK			LBAK			LSHO			LUPA			LAEL			LAOL			LWTS			LWPS			LFRA			LIFD			LHPS			LHTS			RSHO			RUPA			RAEL			RAOL			RWTS			RWPS			RFRA			RIFD			RHTS			RHPS			RBHD			LFHD			RFHD			LBHD			LHIP			RHIP			RASI			LASI			LKNE			LTHI			LANK			LTIP			LTOE			LMT1			LMT5			LHEE			RKNE			RTHI			RANK			RTIP			RTOE			RMT1			RMT5			RHEE			*53			
		X1	Y1	Z1	X2	Y2	Z2	X3	Y3	Z3	X4	Y4	Z4	X5	Y5	Z5	X6	Y6	Z6	X7	Y7	Z7	X8	Y8	Z8	X9	Y9	Z9	X10	Y10	Z10	X11	Y11	Z11	X12	Y12	Z12	X13	Y13	Z13	X14	Y14	Z14	X15	Y15	Z15	X16	Y16	Z16	X17	Y17	Z17	X18	Y18	Z18	X19	Y19	Z19	X20	Y20	Z20	X21	Y21	Z21	X22	Y22	Z22	X23	Y23	Z23	X24	Y24	Z24	X25	Y25	Z25	X26	Y26	Z26	X27	Y27	Z27	X28	Y28	Z28	X29	Y29	Z29	X30	Y30	Z30	X31	Y31	Z31	X32	Y32	Z32	X33	Y33	Z33	X34	Y34	Z34	X35	Y35	Z35	X36	Y36	Z36	X37	Y37	Z37	X38	Y38	Z38	X39	Y39	Z39	X40	Y40	Z40	X41	Y41	Z41	X42	Y42	Z42	X43	Y43	Z43	X44	Y44	Z44	X45	Y45	Z45	X46	Y46	Z46	X47	Y47	Z47	X48	Y48	Z48	X49	Y49	Z49	X50	Y50	Z50	X51	Y51	Z51	X52	Y52	Z52	X53	Y53	Z53	X54	Y54	Z54	

303	3.02	113.0549774169922	1003.127197265625	184.7450256347656	-20.87914848327637	992.50927734375	73.59812927246094	43.48119735717773	1059.54443359375	125.0817413330078	210.695556640625	1261.554077148438	-59.03836822509766	27.45325088500977	1192.695678710938	134.5775451660156	64.30214691162109	1460.290893554688	93.50667572021484	187.2158813476562	1375.598510742188	-36.92065811157227	77.15418243408203	1321.395629882812	188.5247192382812	-25.46089553833008	1422.48583984375	41.42926406860352	-9.286563873291016	1429.118286132812	-82.28119659423828	-79.34386444091797	1304.760986328125	-123.7079696655273	-86.43379211425781	1090.740844726562	-157.1370391845703	-61.16275787353516	1071.796630859375	-54.38367080688477	55.48756408691406	873.3560180664062	-201.4153442382812	-26.3157787322998	848.2913818359375	-197.9154357910156	-65.06923675537109	984.609619140625	-185.0771636962891	104.704345703125	692.445556640625	-204.5243072509766	10.32467269897461	774.3032836914062	-222.8955841064453	79.56499481201172	793.5628051757812	-225.1780242919922	236.2152404785156	1425.840087890625	164.8195037841797	273.5772094726562	1357.951171875	216.2189788818359	276.3227233886719	1101.730224609375	277.567138671875	216.8363037109375	1074.455444335938	201.2851104736328	332.3649597167969	835.9699096679688	168.7380218505859	327.3671264648438	830.583740234375	255.6567077636719	290.1260986328125	1021.100158691406	280.7344665527344	308.6576232910156	649.4324951171875	175.1706695556641	341.8552856445312	732.8050537109375	160.8924102783203	348.5779418945312	738.432861328125	237.7469177246094	63.05281829833984	1644.069580078125	55.9235954284668	244.5777130126953	1670.313110351562	-57.28463745117188	129.2049713134766	1673.332885742188	-107.3414459228516	192.7621154785156	1633.346313476562	102.1222076416016	-12.23826694488525	933.1513671875	-66.49635314941406	216.6623840332031	934.654296875	189.1015472412109	286.6935729980469	954.0651245117188	85.18177032470703	103.4789733886719	949.386962890625	-109.4018020629883	200.5613403320312	504.5945129394531	-126.0174713134766	109.2964096069336	623.755615234375	-119.4923248291016	192.3678436279297	43.26353454589844	-55.86843109130859	189.2653198242188	252.39111328125	-99.43055725097656	343.612548828125	40.49131011962891	-198.2602081298828	346.2452697753906	41.03643798828125	-126.3537979125977	237.8235931396484	39.09734725952148	-155.9975433349609	214.7587127685547	42.72814178466797	34.47884750366211	288.9990539550781	490.3629150390625	124.7426605224609	285.3434448242188	763.5071411132812	134.9138946533203	-12.58926200866699	208.4175720214844	398.240966796875	230.7596588134766	400.4603576660156	192.0042419433594	64.33744049072266	44.56769561767578	292.6669006347656	15.15062427520752	92.04769134521484	278.6817016601562	49.28754425048828	105.0244140625	371.3896484375	-61.95505142211914	247.2961578369141	363.9889221191406	nan	nan	nan	
304	3.03	120.0588912963867	1002.941223144531	178.59228515625	-14.90009689331055	993.2437133789062	68.81438446044922	49.43913650512695	1060.63427734375	119.6496734619141	215.7059478759766	1262.417114257812	-65.80311584472656	32.93952941894531	1193.481201171875	128.4435882568359	69.6715087890625	1461.165405273438	87.29087829589844	192.2786712646484	1376.432006835938	-43.52877044677734	82.84776306152344	1322.177124023438	182.2222900390625	-20.28532409667969	1423.237060546875	35.40589904785156	-4.308572292327881	1429.737060546875	-88.31068420410156	-74.22869873046875	1305.44580078125	-130.1133117675781	-81.02777099609375	1091.687744140625	-165.4024505615234	-56.15560913085938	1071.970947265625	-62.70665740966797	63.5971565246582	876.6451416015625	-211.297119140625	-17.8569393157959	850.2373046875	-208.301513671875	-58.43634414672852	986.0078125	-194.2076263427734	115.9451293945312	696.796142578125	-216.5532684326172	20.07745361328125	777.1561889648438	-234.0244140625	88.98354339599609	797.6649169921875	-235.9839019775391	241.9006042480469	1426.429809570312	158.03759765625	279.3777770996094	1358.4931640625	209.2978515625	282.5751342773438	1102.211669921875	270.6531982421875	222.4692993164062	1074.986938476562	194.6456604003906	337.67236328125	836.7131958007812	160.906494140625	333.031982421875	830.9544677734375	247.8639068603516	296.2721557617188	1021.554931640625	273.6141967773438	314.1834716796875	650.2289428710938	166.4892120361328	347.1913452148438	733.6240844726562	152.5327453613281	354.1842346191406	738.8847045898438	229.3923492431641	68.28347015380859	1644.76171875	49.73055267333984	249.1543273925781	1671.362426757812	-64.48308563232422	133.4868621826172	1674.342407226562	-113.8691940307617	198.2583618164062	1634.087646484375	95.1593017578125	-8.079416275024414	934.0634155273438	-71.40506744384766	224.1899871826172	934.7203369140625	180.9301910400391	292.7119445800781	955.1795043945312	76.44711303710938	107.2394561767578	950.4879150390625	-115.9851150512695	202.1660003662109	504.0443115234375	-129.4191436767578	111.5901641845703	623.7365112304688	-122.8631896972656	192.3094329833984	43.19645309448242	-55.86831283569336	189.6170349121094	252.1702880859375	-100.6096115112305	343.4950256347656	40.48898315429688	-198.2603759765625	346.2220458984375	41.03777313232422	-126.3860702514648	237.7800598144531	38.88101196289062	-156.1450042724609	214.7807006835938	42.75778961181641	34.50701522827148	302.9154968261719	491.7299194335938	109.5473937988281	294.790771484375	764.8775634765625	123.9982299804688	2.908118963241577	213.4482727050781	387.6853332519531	245.2844085693359	402.0391235351562	177.0678558349609	79.65280151367188	48.51774215698242	281.7917785644531	29.77768325805664	96.29828643798828	268.522216796875	65.57938385009766	110.8660125732422	360.4712829589844	-47.04681777954102	251.8270111083984	353.999267578125	nan	nan	nan	
305	3.04	127.1964797973633	1003.148315429688	172.4636688232422	-8.915972709655762	994.1388549804688	64.15849304199219	55.44123840332031	1061.717407226562	114.2836761474609	220.5988311767578	1263.406616210938	-72.48612976074219	38.36076354980469	1194.282592773438	122.5065460205078	74.95204925537109	1462.059692382812	81.24544525146484	197.2072906494141	1377.378662109375	-50.0007209777832	88.484619140625	1322.96923828125	176.04638671875	-15.22561645507812	1424.035278320312	29.60463523864746	0.5016772150993347	1430.445556640625	-94.12059020996094	-69.23221588134766	1306.1962890625	-136.2943115234375	-75.60222625732422	1092.759155273438	-173.5116119384766	-51.11529922485352	1072.223266601562	-70.88436889648438	71.57335662841797	880.03515625	-221.0750885009766	-9.545058250427246	852.3831176757812	-218.6458129882812	-51.83366012573242	987.570068359375	-203.2295989990234	126.8830795288086	701.2706909179688	-228.5851898193359	29.64900970458984	780.2185668945312	-245.1365661621094	98.21434020996094	801.9016723632812	-246.7267456054688	247.4627380371094	1427.079223632812	151.4178161621094	285.0433349609375	1359.101196289062	202.5478668212891	288.5667419433594	1102.730834960938	263.7661437988281	227.9822082519531	1075.566650390625	187.9358978271484	342.9836120605469	837.5421142578125	153.1426391601562	338.6292724609375	831.4044799804688	240.1311340332031	302.1943969726562	1022.057922363281	266.5147094726562	320.0453491210938	651.0889892578125	157.8475189208984	352.7069091796875	734.5648193359375	144.2414398193359	359.8974609375	739.4632568359375	221.1166687011719	73.47795867919922	1645.59716796875	43.59519195556641	253.6864929199219	1672.36669921875	-71.64176177978516	137.7386169433594	1675.332275390625	-120.3605346679688	203.7054290771484	1634.930786132812	88.25473022460938	-4.073358058929443	935.037109375	-76.14488220214844	231.7662048339844	935.1396484375	172.7670288085938	298.6194458007812	956.45361328125	67.63668060302734	110.7542572021484	951.6499633789062	-122.4703216552734	203.5356140136719	503.5042419433594	-132.6222839355469	113.6849594116211	623.7386474609375	-126.0460510253906	192.2231140136719	43.0980110168457	-55.87041473388672	189.8832550048828	251.9731292724609	-101.7280120849609	343.3700866699219	40.51840972900391	-198.2518463134766	346.154052734375	41.06542205810547	-126.4146728515625	237.7094879150391	38.68466186523438	-156.2855834960938	214.7556304931641	42.78677749633789	34.52657699584961	316.4288330078125	493.4837646484375	94.20043182373047	304.0321350097656	766.4961547851562	113.0116882324219	18.7980842590332	217.112548828125	376.295166015625	259.5456237792969	403.8114013671875	161.9224243164062	96.13790130615234	52.42122268676758	269.5243225097656	45.42433929443359	99.89057922363281	257.1447448730469	82.81272888183594	115.8230361938477	348.3094787597656	-31.88935852050781	254.9218139648438	343.2772827148438	nan	nan	nan	
306	3.05	134.4278564453125	1003.75537109375	166.315185546875	-2.950641870498657	995.1640625	59.58707046508789	61.47521591186523	1062.781860351562	108.9380722045898	225.3567504882812	1264.520874023438	-79.10750579833984	43.74153900146484	1195.104736328125	116.7836074829102	80.16231536865234	1462.97216796875	75.36284637451172	201.9987640380859	1378.440551757812	-56.35901641845703	94.09632110595703	1323.780151367188	169.9860992431641	-10.27006244659424	1424.885986328125	24.02877044677734	5.143100738525391	1431.272583007812	-99.70746612548828	-64.36961364746094	1307.048706054688	-142.2422180175781	-70.17012023925781	1093.983520507812	-181.4120635986328	-45.99807357788086	1072.5908203125	-78.88288879394531	79.42666625976562	883.5519409179688	-230.7381896972656	-1.379590630531311	854.7814331054688	-228.9248962402344	-45.26958847045898	989.3323364257812	-212.1045989990234	137.4071655273438	705.83935546875	-240.5760955810547	38.99689102172852	783.5281982421875	-256.2135314941406	107.2370758056641	806.2664794921875	-257.3765869140625	252.9251251220703	1427.822875976562	144.9241485595703	290.6058959960938	1359.817626953125	195.9324188232422	294.2921447753906	1103.343872070312	256.8875732421875	233.4002075195312	1076.258178710938	181.1331634521484	348.3129577636719	838.4867553710938	145.4488067626953	344.1494750976562	831.9854125976562	232.4585266113281	307.8961486816406	1022.653015136719	259.4292907714844	326.1644897460938	652.0436401367188	149.2960205078125	358.3783874511719	735.6503295898438	136.0505828857422	365.6803894042969	740.207275390625	212.9491271972656	78.6334228515625	1646.568359375	37.5250358581543	258.1698608398438	1673.330444335938	-78.75640106201172	141.9527130126953	1676.300170898438	-126.8076019287109	209.1034851074219	1635.879516601562	81.41680908203125	-0.205785721540451	936.0563354492188	-80.76011657714844	239.3222961425781	935.888916015625	164.6418304443359	304.4088745117188	957.8682250976562	58.76667785644531	114.0008316040039	952.81640625	-128.8326110839844	204.7465057373047	502.9768371582031	-135.6378021240234	115.6472091674805	623.772705078125	-129.0928039550781	192.1213531494141	42.97476196289062	-55.88207244873047	190.1206970214844	251.8038482666016	-102.811279296875	343.2562561035156	40.55141067504883	-198.2336730957031	346.0604248046875	41.10031127929688	-126.4373397827148	237.6311950683594	38.50964736938477	-156.4141998291016	214.6864624023438	42.8216667175293	34.53143310546875	329.5031433105469	495.5890502929688	78.72547912597656	313.0344543457031	768.3326416015625	101.9738006591797	35.11891937255859	219.3995971679688	364.1582336425781	273.537841796875	405.7427978515625	146.6078033447266	113.6176300048828	56.02241897583008	255.9058837890625	61.95158386230469	102.7351226806641	244.6019287109375	100.8395614624023	119.7832489013672	334.9743347167969	-16.43187141418457	256.5790710449219	331.9342346191406	nan	nan	nan	
